# xmcd
#
# Track frame offsets:
#	150
#	18480
#	37955
#	56232
#	71620
#	89425
#	105642
#	124295
#	149772
#	169695
#	180902
#	190940
#	208030
#
# Disc length: 2956 seconds
#
# Revision: 0
# Processed by: cddbd v1.5.1PL0 Copyright (c) Steve Scherf et al.
# Submitted via: dBpowerAMP V4.0
#
DISCID=bd0b8a0d
DTITLE=Various Artist - The Ladies of Jazz
DYEAR=1900
DGENRE=Blues
TTITLE0=Ella Fitsgerald_Something to live for
TTITLE1=Ella Fitsgerald_Let's do it
TTITLE2=Ella Fitsgerald_Mr. Paganini
TTITLE3=Billie Holiday_I cover the waterfront
TTITLE4=Billie Holiday_Willow weep for me
TTITLE5=Nina Simone_My baby just cares for me
TTITLE6=Nina Simone_I love you porgy
TTITLE7=Nina Simone_After you've gone
TTITLE8=Dinah Washington_I could write a book
TTITLE9=Dinah Washington_Come rain or come shine
TTITLE10=Dinah Washington_There is no greater love
TTITLE11=Helen Merril_But nor for me
TTITLE12=Helen Merril_Falling in love with you
EXTD=
EXTT0=
EXTT1=
EXTT2=
EXTT3=
EXTT4=
EXTT5=
EXTT6=
EXTT7=
EXTT8=
EXTT9=
EXTT10=
EXTT11=
EXTT12=
PLAYORDER=
